<?xml version="1.0" encoding="UTF-8"?>
<svg width="1000" height="600" xmlns="http://www.w3.org/2000/svg">
    <!-- Styles -->
    <defs>
        <marker id="arrowhead" markerWidth="10" markerHeight="7" refX="9" refY="3.5" orient="auto">
            <polygon points="0 0, 10 3.5, 0 7" fill="#666"/>
        </marker>
    </defs>
    <style>
        .workflow { fill: #e3f2fd; stroke: #1976d2; stroke-width: 2; }
        .trigger { fill: #fff3e0; stroke: #f57c00; stroke-width: 2; }
        .action { fill: #e8f5e9; stroke: #388e3c; stroke-width: 2; }
        text { font-family: Arial; font-size: 14px; }
        .arrow { stroke: #666; stroke-width: 2; marker-end: url(#arrowhead); }
    </style>

    <!-- Title -->
    <text x="500" y="40" text-anchor="middle" font-size="24" font-weight="bold">CI/CD Pipeline Architecture</text>

    <!-- Terraform Plan Workflow -->
    <rect class="workflow" x="100" y="100" width="180" height="60" rx="5"/>
    <text x="190" y="135" text-anchor="middle">Terraform Plan</text>

    <!-- Terraform Apply Workflow -->
    <rect class="workflow" x="400" y="100" width="180" height="60" rx="5"/>
    <text x="490" y="135" text-anchor="middle">Terraform Apply</text>

    <!-- K8s Deploy Workflow -->
    <rect class="workflow" x="400" y="250" width="180" height="60" rx="5"/>
    <text x="490" y="285" text-anchor="middle">K8s Deploy</text>

    <!-- Docker Build & Push Workflow -->
    <rect class="workflow" x="100" y="250" width="180" height="60" rx="5"/>
    <text x="190" y="285" text-anchor="middle">Docker Build & Push</text>

    <!-- Terraform Destroy Workflow -->
    <rect class="workflow" x="400" y="400" width="180" height="60" rx="5"/>
    <text x="490" y="435" text-anchor="middle">Terraform Destroy</text>

    <!-- Cleanup Workflow -->
    <rect class="workflow" x="700" y="400" width="180" height="60" rx="5"/>
    <text x="790" y="435" text-anchor="middle">Cleanup Workflows</text>

    <!-- Workflow Connections -->
    <path class="arrow" d="M280 130 H390"/>
    <path class="arrow" d="M490 160 V240"/>
    <path class="arrow" d="M280 280 H390"/>
    <path class="arrow" d="M580 430 H690"/>

    <!-- Trigger Labels -->
    <rect class="trigger" x="300" y="100" width="80" height="30" rx="15"/>
    <text x="340" y="120" text-anchor="middle" font-size="12">Manual</text>

    <rect class="trigger" x="300" y="250" width="80" height="30" rx="15"/>
    <text x="340" y="270" text-anchor="middle" font-size="12">Manual</text>

    <rect class="trigger" x="490" y="180" width="100" height="30" rx="15"/>
    <text x="540" y="200" text-anchor="middle" font-size="12">On Success</text>

    <rect class="trigger" x="600" y="400" width="80" height="30" rx="15"/>
    <text x="640" y="420" text-anchor="middle" font-size="12">Manual</text>

    <!-- Legend -->
    <rect x="100" y="500" width="20" height="20" class="workflow"/>
    <text x="130" y="515">Workflow</text>

    <rect x="220" y="500" width="20" height="20" class="trigger"/>
    <text x="250" y="515">Trigger</text>

    <line x1="340" y1="510" x2="390" y2="510" class="arrow"/>
    <text x="420" y="515">Flow</text>
</svg>